#!OML:ASF H:\LiuWeirdWalks\Patient Classification 1\Patient 1\Session 1\male.ASF
:FULLY-SPECIFIED
:DEGREES
751
root 1.97196 18.141 1.10378 1.56963 4.08168 -2.54237
lowerback 9.80133 -0.563198 -8.3653
upperback 1.88697 -1.67507 -1.89686
thorax -3.34129 -0.75385 2.92597
lowerneck -20.2259 1.49457 5.09517
upperneck 31.1916 -0.354216 1.92306
head 14.0701 0.731936 -0.165249
rclavicle -1.2921e-014 7.95139e-015
rhumerus -23.5838 -27.684 -1.86917
rradius 30.0131
rwrist -2.0905
rhand -22.1696 -7.34064
rfingers 7.12502
rthumb 4.245 -37.2781
lclavicle -1.2921e-014 7.95139e-015
lhumerus -19.7543 30.5235 17.3804
lradius 31.0694
lwrist -3.13051
lhand -17.1149 4.9808
lfingers 7.12502
lthumb 9.12445 34.7634
rfemur -21.6651 -6.56514 18.1734
rtibia 50.5741
rfoot -11.2042 -19.1461
rtoes -5.4075
lfemur -6.35068 -2.84434 -17.3234
ltibia 25.0341
lfoot -10.7263 16.7425
ltoes -8.55939
752
root 1.96176 18.1398 1.15008 1.60852 4.10673 -2.50551
lowerback 9.90254 -0.592224 -8.50107
upperback 1.90353 -1.74002 -1.975
thorax -3.37118 -0.783921 2.9296
lowerneck -20.1655 1.51412 5.13582
upperneck 31.1025 -0.368308 2.02305
head 14.0194 0.742129 -0.135463
rclavicle 2.90226e-014 3.49861e-014
rhumerus -23.6396 -27.6296 -1.8001
rradius 30.0743
rwrist -2.14915
rhand -22.1801 -7.26877
rfingers 7.12502
rthumb 4.23481 -37.2064
lclavicle 2.90226e-014 3.49861e-014
lhumerus -19.8612 30.5555 17.3809
lradius 31.0617
lwrist -3.11224
lhand -17.1329 5.0098
lfingers 7.12502
lthumb 9.10711 34.7932
rfemur -22.1157 -6.58488 18.281
rtibia 49.5384
rfoot -11.4023 -19.1655
rtoes -5.69253
lfemur -6.22502 -2.72649 -17.3074
ltibia 25.0231
lfoot -10.7921 16.6552
ltoes -8.88413
753
root 1.95028 18.1398 1.19638 1.6462 4.13124 -2.46277
lowerback 10.0045 -0.615944 -8.64536
upperback 1.9282 -1.79862 -2.05167
thorax -3.39316 -0.811251 2.9387
lowerneck -20.1421 1.52762 5.16472
upperneck 31.0426 -0.392556 2.12883
head 13.9895 0.748268 -0.102781
rclavicle 1.15295e-014 1.11319e-014
rhumerus -23.7099 -27.577 -1.72883
rradius 30.1462
rwrist -2.26222
rhand -22.2098 -7.25224
rfingers 7.12502
rthumb 4.20619 -37.1905
lclavicle 1.15295e-014 1.11319e-014
lhumerus -19.9349 30.5947 17.4038
lradius 31.0511
lwrist -3.09473
lhand -17.1634 5.07037
lfingers 7.12502
lthumb 9.07771 34.855
rfemur -22.5469 -6.60121 18.3771
rtibia 48.4852
rfoot -11.5312 -19.1847
rtoes -5.89031
lfemur -6.08095 -2.5972 -17.2893
ltibia 24.9755
lfoot -10.8401 16.5465
ltoes -9.16451
754
root 1.93778 18.1408 1.24276 1.68386 4.15791 -2.42416
lowerback 10.1019 -0.634666 -8.78037
upperback 1.95957 -1.84888 -2.12561
thorax -3.40662 -0.835046 2.94432
lowerneck -20.1649 1.53159 5.1688
upperneck 31.0002 -0.428084 2.2416
head 13.9771 0.748344 -0.0646647
rclavicle 6.75868e-015 -2.38542e-014
rhumerus -23.7913 -27.5274 -1.65308
rradius 30.2242
rwrist -2.40143
rhand -22.25 -7.32026
rfingers 7.12502
rthumb 4.1674 -37.2592
lclavicle 6.75868e-015 -2.38542e-014
lhumerus -19.9696 30.6354 17.453
lradius 31.0304
lwrist -3.09062
lhand -17.2056 5.14305
lfingers 7.12502
lthumb 9.03695 34.9295
rfemur -22.958 -6.62023 18.4721
rtibia 47.4184
rfoot -11.5859 -19.2044
rtoes -6.02427
lfemur -5.91939 -2.46364 -17.2595
ltibia 24.892
lfoot -10.8772 16.4202
ltoes -9.40384
755
root 1.92457 18.1428 1.2893 1.72116 4.18418 -2.39218
lowerback 10.196 -0.64929 -8.90341
upperback 1.99552 -1.89182 -2.19536
thorax -3.41427 -0.8557 2.94668
lowerneck -20.2139 1.52935 5.15962
upperneck 30.9532 -0.468975 2.35264
head 13.9682 0.7444 -0.0258339
rclavicle 2.90226e-014 4.77083e-014
rhumerus -23.8845 -27.5353 -1.56287
rradius 30.2895
rwrist -2.48828
rhand -22.2994 -7.39224
rfingers 7.12502
rthumb 4.11964 -37.3322
lclavicle 2.90226e-014 4.77083e-014
lhumerus -19.9801 30.6759 17.5177
lradius 31.0014
lwrist -3.12134
lhand -17.229 5.18994
lfingers 7.12502
lthumb 9.01433 34.9773
rfemur -23.348 -6.64285 18.5679
rtibia 46.343
rfoot -11.5513 -19.2283
rtoes -6.16915
lfemur -5.74171 -2.31663 -17.2152
ltibia 24.7785
lfoot -10.9107 16.2671
ltoes -9.59959
756
root 1.91067 18.1453 1.33619 1.75693 4.20772 -2.3764
lowerback 10.2777 -0.661862 -9.0073
upperback 2.03432 -1.92836 -2.25867
thorax -3.41319 -0.87382 2.944
lowerneck -20.2615 1.52498 5.15177
upperneck 30.9082 -0.509279 2.45202
head 13.9598 0.739269 0.00816848
rclavicle -2.38542e-015 2.06736e-014
rhumerus -23.9711 -27.6171 -1.46141
rradius 30.3212
rwrist -2.49051
rhand -22.32 -7.44538
rfingers 7.12502
rthumb 4.09981 -37.3857
lclavicle -2.38542e-015 2.06736e-014
lhumerus -19.9874 30.6834 17.5918
lradius 30.9827
lwrist -3.15203
lhand -17.2331 5.20453
lfingers 7.12502
lthumb 9.01045 34.9921
rfemur -23.7144 -6.66207 18.6763
rtibia 45.2643
rfoot -11.4367 -19.2568
rtoes -6.29105
lfemur -5.54864 -2.15598 -17.1458
ltibia 24.6411
lfoot -10.9382 16.0889
ltoes -9.79802
757
root 1.89624 18.1481 1.38321 1.79314 4.22896 -2.36806
lowerback 10.3557 -0.676851 -9.10247
upperback 2.06914 -1.96697 -2.31701
thorax -3.41402 -0.892864 2.94191
lowerneck -20.2699 1.53599 5.19178
upperneck 30.8249 -0.523266 2.50313
head 13.9264 0.743024 0.0186234
rclavicle -1.78906e-014 -4.77083e-015
rhumerus -24.0471 -27.6959 -1.36754
rradius 30.3364
rwrist -2.45249
rhand -22.3393 -7.45106
rfingers 7.12502
rthumb 4.08112 -37.3917
lclavicle -1.78906e-014 -4.77083e-015
lhumerus -20.0098 30.6628 17.6592
lradius 30.9726
lwrist -3.15331
lhand -17.2244 5.16656
lfingers 7.12502
lthumb 9.01881 34.9538
rfemur -24.058 -6.68205 18.7865
rtibia 44.187
rfoot -11.2622 -19.2822
rtoes -6.40979
lfemur -5.34541 -1.98724 -17.0625
ltibia 24.4856
lfoot -10.9545 15.8916
ltoes -10.014
